<?xml version="1.0" encoding="UTF-8" standalone="no"?>
<!-- Generated by Graphviz version 2.12 (Sat Apr 21 13:02:05 UTC 2007)
     For user: (jasond)  -->
<!-- Title: controllers_diagram Pages: 1 -->
<svg
   xmlns:dc="http://purl.org/dc/elements/1.1/"
   xmlns:cc="http://web.resource.org/cc/"
   xmlns:rdf="http://www.w3.org/1999/02/22-rdf-syntax-ns#"
   xmlns:svg="http://www.w3.org/2000/svg"
   xmlns="http://www.w3.org/2000/svg"
   xmlns:sodipodi="http://sodipodi.sourceforge.net/DTD/sodipodi-0.dtd"
   xmlns:inkscape="http://www.inkscape.org/namespaces/inkscape"
   width="1425.3297"
   height="541.33337"
   id="svg2"
   sodipodi:version="0.32"
   inkscape:version="0.45.1"
   sodipodi:docname="controllers.svg"
   inkscape:output_extension="org.inkscape.output.svg.inkscape"
   sodipodi:docbase="/home/jasond/projects/learnstat/trunk"
   version="1.0">
  <metadata
     id="metadata479">
    <rdf:RDF>
      <cc:Work
         rdf:about="">
        <dc:format>image/svg+xml</dc:format>
        <dc:type
           rdf:resource="http://purl.org/dc/dcmitype/StillImage" />
      </cc:Work>
    </rdf:RDF>
  </metadata>
  <defs
     id="defs477" />
  <sodipodi:namedview
     inkscape:window-height="1001"
     inkscape:window-width="1680"
     inkscape:pageshadow="2"
     inkscape:pageopacity="0.0"
     guidetolerance="10.0"
     gridtolerance="10.0"
     objecttolerance="10.0"
     borderopacity="1.0"
     bordercolor="#666666"
     pagecolor="#ffffff"
     id="base"
     showborder="false"
     inkscape:zoom="0.97445043"
     inkscape:cx="610.09426"
     inkscape:cy="111.4375"
     inkscape:window-x="8"
     inkscape:window-y="49"
     inkscape:current-layer="graph0" />
  <g
     id="graph0"
     class="graph"
     transform="matrix(1.33333,0,0,1.33333,97.969888,400.53894)">
    <title
       id="title5">controllers_diagram</title>
<!-- CoursesController -->    <g
       id="node1"
       class="node"
       transform="translate(-30.059899,-99.904958)">
      <title
         id="title10">CoursesController</title>
      <polyline
         style="fill:none;stroke:#000000"
         points="12,-0 154,-0 "
         id="polyline12" />
      <path
         style="fill:none;stroke:#000000"
         d="M 154,0 C 160,0 166,-6 166,-12"
         id="path14" />
      <polyline
         style="fill:none;stroke:#000000"
         points="166,-12 166,-188 "
         id="polyline16" />
      <path
         style="fill:none;stroke:#000000"
         d="M 166,-188 C 166,-194 160,-200 154,-200"
         id="path18" />
      <polyline
         style="fill:none;stroke:#000000"
         points="154,-200 12,-200 "
         id="polyline20" />
      <path
         style="fill:none;stroke:#000000"
         d="M 12,-200 C 6,-200 0,-194 0,-188"
         id="path22" />
      <polyline
         style="fill:none;stroke:#000000"
         points="0,-188 0,-12 "
         id="polyline24" />
      <path
         style="fill:none;stroke:#000000"
         d="M 0,-12 C 0,-6 6,0 12,0"
         id="path26" />
      <text
         x="83"
         y="-181"
         style="font-size:14.17500019px;text-anchor:middle;font-family:Nimbus Roman No9 L"
         id="text28">CoursesController</text>
      <polyline
         style="fill:none;stroke:#000000"
         points="0,-175 166,-175 "
         id="polyline30" />
      <text
         x="8"
         y="-157"
         style="font-size:14.17500019px;text-anchor:start;font-family:Nimbus Roman No9 L"
         id="text32">create</text>
      <text
         x="8"
         y="-140"
         style="font-size:14.17500019px;text-anchor:start;font-family:Nimbus Roman No9 L"
         id="text34">destroy</text>
      <text
         x="8"
         y="-123"
         style="font-size:14.17500019px;text-anchor:start;font-family:Nimbus Roman No9 L"
         id="text36">edit</text>
      <text
         x="8"
         y="-106"
         style="font-size:14.17500019px;text-anchor:start;font-family:Nimbus Roman No9 L"
         id="text38">index</text>
      <text
         x="8"
         y="-89"
         style="font-size:14.17500019px;text-anchor:start;font-family:Nimbus Roman No9 L"
         id="text40">new</text>
      <text
         x="8"
         y="-72"
         style="font-size:14.17500019px;text-anchor:start;font-family:Nimbus Roman No9 L"
         id="text42">show</text>
      <text
         x="8"
         y="-55"
         style="font-size:14.17500019px;text-anchor:start;font-family:Nimbus Roman No9 L"
         id="text44">update</text>
      <polyline
         style="fill:none;stroke:#000000"
         points="0,-49 166,-49 "
         id="polyline46" />
      <polyline
         style="fill:none;stroke:#000000"
         points="0,-25 166,-25 "
         id="polyline48" />
      <text
         x="8"
         y="-6"
         style="font-size:14.17500019px;text-anchor:start;font-family:Nimbus Roman No9 L"
         id="text50">redirect_students_to_show</text>
    </g>
<!-- DocumentsController -->    <g
       id="node2"
       class="node"
       transform="translate(-30.059899,-99.904958)">
      <title
         id="title53">DocumentsController</title>
      <polyline
         style="fill:none;stroke:#000000"
         points="196,-9 309,-9 "
         id="polyline55" />
      <path
         style="fill:none;stroke:#000000"
         d="M 309,-9 C 315,-9 321,-15 321,-21"
         id="path57" />
      <polyline
         style="fill:none;stroke:#000000"
         points="321,-21 321,-179 "
         id="polyline59" />
      <path
         style="fill:none;stroke:#000000"
         d="M 321,-179 C 321,-185 315,-191 309,-191"
         id="path61" />
      <polyline
         style="fill:none;stroke:#000000"
         points="309,-191 196,-191 "
         id="polyline63" />
      <path
         style="fill:none;stroke:#000000"
         d="M 196,-191 C 190,-191 184,-185 184,-179"
         id="path65" />
      <polyline
         style="fill:none;stroke:#000000"
         points="184,-179 184,-21 "
         id="polyline67" />
      <path
         style="fill:none;stroke:#000000"
         d="M 184,-21 C 184,-15 190,-9 196,-9"
         id="path69" />
      <text
         x="252"
         y="-172"
         style="font-size:14.17500019px;text-anchor:middle;font-family:Nimbus Roman No9 L"
         id="text71">DocumentsController</text>
      <polyline
         style="fill:none;stroke:#000000"
         points="184,-166 321,-166 "
         id="polyline73" />
      <text
         x="191"
         y="-147"
         style="font-size:14.17500019px;text-anchor:start;font-family:Nimbus Roman No9 L"
         id="text75">create</text>
      <text
         x="191"
         y="-130"
         style="font-size:14.17500019px;text-anchor:start;font-family:Nimbus Roman No9 L"
         id="text77">destroy</text>
      <text
         x="191"
         y="-113"
         style="font-size:14.17500019px;text-anchor:start;font-family:Nimbus Roman No9 L"
         id="text79">edit</text>
      <text
         x="191"
         y="-96"
         style="font-size:14.17500019px;text-anchor:start;font-family:Nimbus Roman No9 L"
         id="text81">new</text>
      <text
         x="191"
         y="-79"
         style="font-size:14.17500019px;text-anchor:start;font-family:Nimbus Roman No9 L"
         id="text83">show</text>
      <text
         x="191"
         y="-62"
         style="font-size:14.17500019px;text-anchor:start;font-family:Nimbus Roman No9 L"
         id="text85">update</text>
      <polyline
         style="fill:none;stroke:#000000"
         points="184,-57 321,-57 "
         id="polyline87" />
      <polyline
         style="fill:none;stroke:#000000"
         points="184,-33 321,-33 "
         id="polyline89" />
    </g>
<!-- AnnouncementsController -->    <g
       id="node3"
       class="node"
       transform="translate(-30.059899,-99.904958)">
      <title
         id="title92">AnnouncementsController</title>
      <polyline
         style="fill:none;stroke:#000000"
         points="350,-17 491,-17 "
         id="polyline94" />
      <path
         style="fill:none;stroke:#000000"
         d="M 491,-17 C 497,-17 503,-23 503,-29"
         id="path96" />
      <polyline
         style="fill:none;stroke:#000000"
         points="503,-29 503,-170 "
         id="polyline98" />
      <path
         style="fill:none;stroke:#000000"
         d="M 503,-170 C 503,-176 497,-182 491,-182"
         id="path100" />
      <polyline
         style="fill:none;stroke:#000000"
         points="491,-182 350,-182 "
         id="polyline102" />
      <path
         style="fill:none;stroke:#000000"
         d="M 350,-182 C 344,-182 338,-176 338,-170"
         id="path104" />
      <polyline
         style="fill:none;stroke:#000000"
         points="338,-170 338,-29 "
         id="polyline106" />
      <path
         style="fill:none;stroke:#000000"
         d="M 338,-29 C 338,-23 344,-17 350,-17"
         id="path108" />
      <text
         x="420"
         y="-163"
         style="font-size:14.17500019px;text-anchor:middle;font-family:Nimbus Roman No9 L"
         id="text110">AnnouncementsController</text>
      <polyline
         style="fill:none;stroke:#000000"
         points="338,-157 503,-157 "
         id="polyline112" />
      <text
         x="345"
         y="-139"
         style="font-size:14.17500019px;text-anchor:start;font-family:Nimbus Roman No9 L"
         id="text114">create</text>
      <text
         x="345"
         y="-122"
         style="font-size:14.17500019px;text-anchor:start;font-family:Nimbus Roman No9 L"
         id="text116">destroy</text>
      <text
         x="345"
         y="-105"
         style="font-size:14.17500019px;text-anchor:start;font-family:Nimbus Roman No9 L"
         id="text118">edit</text>
      <text
         x="345"
         y="-88"
         style="font-size:14.17500019px;text-anchor:start;font-family:Nimbus Roman No9 L"
         id="text120">new</text>
      <text
         x="345"
         y="-71"
         style="font-size:14.17500019px;text-anchor:start;font-family:Nimbus Roman No9 L"
         id="text122">update</text>
      <polyline
         style="fill:none;stroke:#000000"
         points="338,-65 503,-65 "
         id="polyline124" />
      <polyline
         style="fill:none;stroke:#000000"
         points="338,-41 503,-41 "
         id="polyline126" />
    </g>
<!-- QuestionsController -->    <g
       id="node4"
       class="node"
       transform="translate(-30.059899,-99.904958)">
      <title
         id="title129">QuestionsController</title>
      <polyline
         style="fill:none;stroke:#000000"
         points="532,-0 638,-0 "
         id="polyline131" />
      <path
         style="fill:none;stroke:#000000"
         d="M 638,0 C 644,0 650,-6 650,-12"
         id="path133" />
      <polyline
         style="fill:none;stroke:#000000"
         points="650,-12 650,-187 "
         id="polyline135" />
      <path
         style="fill:none;stroke:#000000"
         d="M 650,-187 C 650,-193 644,-199 638,-199"
         id="path137" />
      <polyline
         style="fill:none;stroke:#000000"
         points="638,-199 532,-199 "
         id="polyline139" />
      <path
         style="fill:none;stroke:#000000"
         d="M 532,-199 C 526,-199 520,-193 520,-187"
         id="path141" />
      <polyline
         style="fill:none;stroke:#000000"
         points="520,-187 520,-12 "
         id="polyline143" />
      <path
         style="fill:none;stroke:#000000"
         d="M 520,-12 C 520,-6 526,0 532,0"
         id="path145" />
      <text
         x="585"
         y="-180"
         style="font-size:14.17500019px;text-anchor:middle;font-family:Nimbus Roman No9 L"
         id="text147">QuestionsController</text>
      <polyline
         style="fill:none;stroke:#000000"
         points="520,-174 650,-174 "
         id="polyline149" />
      <text
         x="528"
         y="-156"
         style="font-size:14.17500019px;text-anchor:start;font-family:Nimbus Roman No9 L"
         id="text151">create</text>
      <text
         x="528"
         y="-139"
         style="font-size:14.17500019px;text-anchor:start;font-family:Nimbus Roman No9 L"
         id="text153">destroy</text>
      <text
         x="528"
         y="-122"
         style="font-size:14.17500019px;text-anchor:start;font-family:Nimbus Roman No9 L"
         id="text155">edit</text>
      <text
         x="528"
         y="-105"
         style="font-size:14.17500019px;text-anchor:start;font-family:Nimbus Roman No9 L"
         id="text157">index</text>
      <text
         x="528"
         y="-88"
         style="font-size:14.17500019px;text-anchor:start;font-family:Nimbus Roman No9 L"
         id="text159">new</text>
      <text
         x="528"
         y="-71"
         style="font-size:14.17500019px;text-anchor:start;font-family:Nimbus Roman No9 L"
         id="text161">show</text>
      <text
         x="528"
         y="-54"
         style="font-size:14.17500019px;text-anchor:start;font-family:Nimbus Roman No9 L"
         id="text163">update</text>
      <polyline
         style="fill:none;stroke:#000000"
         points="520,-48 650,-48 "
         id="polyline165" />
      <polyline
         style="fill:none;stroke:#000000"
         points="520,-24 650,-24 "
         id="polyline167" />
    </g>
<!-- GradesController -->    <g
       id="node5"
       class="node"
       transform="translate(-30.059899,-99.904958)">
      <title
         id="title170">GradesController</title>
      <polyline
         style="fill:none;stroke:#000000"
         points="680,-0 769,-0 "
         id="polyline172" />
      <path
         style="fill:none;stroke:#000000"
         d="M 769,0 C 775,0 781,-6 781,-12"
         id="path174" />
      <polyline
         style="fill:none;stroke:#000000"
         points="781,-12 781,-187 "
         id="polyline176" />
      <path
         style="fill:none;stroke:#000000"
         d="M 781,-187 C 781,-193 775,-199 769,-199"
         id="path178" />
      <polyline
         style="fill:none;stroke:#000000"
         points="769,-199 680,-199 "
         id="polyline180" />
      <path
         style="fill:none;stroke:#000000"
         d="M 680,-199 C 674,-199 668,-193 668,-187"
         id="path182" />
      <polyline
         style="fill:none;stroke:#000000"
         points="668,-187 668,-12 "
         id="polyline184" />
      <path
         style="fill:none;stroke:#000000"
         d="M 668,-12 C 668,-6 674,0 680,0"
         id="path186" />
      <text
         x="724"
         y="-180"
         style="font-size:14.17500019px;text-anchor:middle;font-family:Nimbus Roman No9 L"
         id="text188">GradesController</text>
      <polyline
         style="fill:none;stroke:#000000"
         points="668,-174 781,-174 "
         id="polyline190" />
      <text
         x="675"
         y="-156"
         style="font-size:14.17500019px;text-anchor:start;font-family:Nimbus Roman No9 L"
         id="text192">create</text>
      <text
         x="675"
         y="-139"
         style="font-size:14.17500019px;text-anchor:start;font-family:Nimbus Roman No9 L"
         id="text194">destroy</text>
      <text
         x="675"
         y="-122"
         style="font-size:14.17500019px;text-anchor:start;font-family:Nimbus Roman No9 L"
         id="text196">edit</text>
      <text
         x="675"
         y="-105"
         style="font-size:14.17500019px;text-anchor:start;font-family:Nimbus Roman No9 L"
         id="text198">index</text>
      <text
         x="675"
         y="-88"
         style="font-size:14.17500019px;text-anchor:start;font-family:Nimbus Roman No9 L"
         id="text200">new</text>
      <text
         x="675"
         y="-71"
         style="font-size:14.17500019px;text-anchor:start;font-family:Nimbus Roman No9 L"
         id="text202">show</text>
      <text
         x="675"
         y="-54"
         style="font-size:14.17500019px;text-anchor:start;font-family:Nimbus Roman No9 L"
         id="text204">update</text>
      <polyline
         style="fill:none;stroke:#000000"
         points="668,-48 781,-48 "
         id="polyline206" />
      <polyline
         style="fill:none;stroke:#000000"
         points="668,-24 781,-24 "
         id="polyline208" />
    </g>
<!-- QuestionChoicesController -->    <g
       id="node6"
       class="node"
       transform="translate(-30.059899,-99.904958)">
      <title
         id="title211">QuestionChoicesController</title>
      <polyline
         style="fill:none;stroke:#000000"
         points="810,-17 955,-17 "
         id="polyline213" />
      <path
         style="fill:none;stroke:#000000"
         d="M 955,-17 C 961,-17 967,-23 967,-29"
         id="path215" />
      <polyline
         style="fill:none;stroke:#000000"
         points="967,-29 967,-170 "
         id="polyline217" />
      <path
         style="fill:none;stroke:#000000"
         d="M 967,-170 C 967,-176 961,-182 955,-182"
         id="path219" />
      <polyline
         style="fill:none;stroke:#000000"
         points="955,-182 810,-182 "
         id="polyline221" />
      <path
         style="fill:none;stroke:#000000"
         d="M 810,-182 C 804,-182 798,-176 798,-170"
         id="path223" />
      <polyline
         style="fill:none;stroke:#000000"
         points="798,-170 798,-29 "
         id="polyline225" />
      <path
         style="fill:none;stroke:#000000"
         d="M 798,-29 C 798,-23 804,-17 810,-17"
         id="path227" />
      <text
         x="882"
         y="-163"
         style="font-size:14.17500019px;text-anchor:middle;font-family:Nimbus Roman No9 L"
         id="text229">QuestionChoicesController</text>
      <polyline
         style="fill:none;stroke:#000000"
         points="798,-157 967,-157 "
         id="polyline231" />
      <text
         x="805"
         y="-139"
         style="font-size:14.17500019px;text-anchor:start;font-family:Nimbus Roman No9 L"
         id="text233">create</text>
      <text
         x="805"
         y="-122"
         style="font-size:14.17500019px;text-anchor:start;font-family:Nimbus Roman No9 L"
         id="text235">destroy</text>
      <text
         x="805"
         y="-105"
         style="font-size:14.17500019px;text-anchor:start;font-family:Nimbus Roman No9 L"
         id="text237">edit</text>
      <text
         x="805"
         y="-88"
         style="font-size:14.17500019px;text-anchor:start;font-family:Nimbus Roman No9 L"
         id="text239">new</text>
      <text
         x="805"
         y="-71"
         style="font-size:14.17500019px;text-anchor:start;font-family:Nimbus Roman No9 L"
         id="text241">update</text>
      <polyline
         style="fill:none;stroke:#000000"
         points="798,-65 967,-65 "
         id="polyline243" />
      <polyline
         style="fill:none;stroke:#000000"
         points="798,-41 967,-41 "
         id="polyline245" />
    </g>
<!-- QuizzesController -->    <g
       id="node7"
       class="node"
       transform="translate(-1056.9776,114.09607)">
      <title
         id="title248">QuizzesController</title>
      <polyline
         style="fill:none;stroke:#000000"
         points="996,-9 1091,-9 "
         id="polyline250" />
      <path
         style="fill:none;stroke:#000000"
         d="M 1091,-9 C 1097,-9 1103,-15 1103,-21"
         id="path252" />
      <polyline
         style="fill:none;stroke:#000000"
         points="1103,-21 1103,-179 "
         id="polyline254" />
      <path
         style="fill:none;stroke:#000000"
         d="M 1103,-179 C 1103,-185 1097,-191 1091,-191"
         id="path256" />
      <polyline
         style="fill:none;stroke:#000000"
         points="1091,-191 996,-191 "
         id="polyline258" />
      <path
         style="fill:none;stroke:#000000"
         d="M 996,-191 C 990,-191 984,-185 984,-179"
         id="path260" />
      <polyline
         style="fill:none;stroke:#000000"
         points="984,-179 984,-21 "
         id="polyline262" />
      <path
         style="fill:none;stroke:#000000"
         d="M 984,-21 C 984,-15 990,-9 996,-9"
         id="path264" />
      <text
         x="1043"
         y="-172"
         style="font-size:14.17500019px;text-anchor:middle;font-family:Nimbus Roman No9 L"
         id="text266">QuizzesController</text>
      <polyline
         style="fill:none;stroke:#000000"
         points="984,-166 1103,-166 "
         id="polyline268" />
      <text
         x="991"
         y="-147"
         style="font-size:14.17500019px;text-anchor:start;font-family:Nimbus Roman No9 L"
         id="text270">create</text>
      <text
         x="991"
         y="-130"
         style="font-size:14.17500019px;text-anchor:start;font-family:Nimbus Roman No9 L"
         id="text272">destroy</text>
      <text
         x="991"
         y="-113"
         style="font-size:14.17500019px;text-anchor:start;font-family:Nimbus Roman No9 L"
         id="text274">edit</text>
      <text
         x="991"
         y="-96"
         style="font-size:14.17500019px;text-anchor:start;font-family:Nimbus Roman No9 L"
         id="text276">new</text>
      <text
         x="991"
         y="-79"
         style="font-size:14.17500019px;text-anchor:start;font-family:Nimbus Roman No9 L"
         id="text278">show</text>
      <text
         x="991"
         y="-62"
         style="font-size:14.17500019px;text-anchor:start;font-family:Nimbus Roman No9 L"
         id="text280">update</text>
      <polyline
         style="fill:none;stroke:#000000"
         points="984,-57 1103,-57 "
         id="polyline282" />
      <polyline
         style="fill:none;stroke:#000000"
         points="984,-33 1103,-33 "
         id="polyline284" />
    </g>
<!-- QuizQuestionsController -->    <g
       id="node8"
       class="node"
       transform="translate(-1056.9776,114.09607)">
      <title
         id="title287">QuizQuestionsController</title>
      <polyline
         style="fill:none;stroke:#000000"
         points="1132,-42 1265,-42 "
         id="polyline289" />
      <path
         style="fill:none;stroke:#000000"
         d="M 1265,-42 C 1271,-42 1277,-48 1277,-54"
         id="path291" />
      <polyline
         style="fill:none;stroke:#000000"
         points="1277,-54 1277,-145 "
         id="polyline293" />
      <path
         style="fill:none;stroke:#000000"
         d="M 1277,-145 C 1277,-151 1271,-157 1265,-157"
         id="path295" />
      <polyline
         style="fill:none;stroke:#000000"
         points="1265,-157 1132,-157 "
         id="polyline297" />
      <path
         style="fill:none;stroke:#000000"
         d="M 1132,-157 C 1126,-157 1120,-151 1120,-145"
         id="path299" />
      <polyline
         style="fill:none;stroke:#000000"
         points="1120,-145 1120,-54 "
         id="polyline301" />
      <path
         style="fill:none;stroke:#000000"
         d="M 1120,-54 C 1120,-48 1126,-42 1132,-42"
         id="path303" />
      <text
         x="1198"
         y="-138"
         style="font-size:14.17500019px;text-anchor:middle;font-family:Nimbus Roman No9 L"
         id="text305">QuizQuestionsController</text>
      <polyline
         style="fill:none;stroke:#000000"
         points="1120,-132 1277,-132 "
         id="polyline307" />
      <text
         x="1127"
         y="-114"
         style="font-size:14.17500019px;text-anchor:start;font-family:Nimbus Roman No9 L"
         id="text309">create</text>
      <text
         x="1127"
         y="-97"
         style="font-size:14.17500019px;text-anchor:start;font-family:Nimbus Roman No9 L"
         id="text311">destroy</text>
      <polyline
         style="fill:none;stroke:#000000"
         points="1120,-90 1277,-90 "
         id="polyline313" />
      <polyline
         style="fill:none;stroke:#000000"
         points="1120,-66 1277,-66 "
         id="polyline315" />
    </g>
<!-- UsersController -->    <g
       id="node9"
       class="node"
       transform="translate(-1056.9776,114.09607)">
      <title
         id="title318">UsersController</title>
      <polyline
         style="fill:none;stroke:#000000"
         points="1306,-42 1387,-42 "
         id="polyline320" />
      <path
         style="fill:none;stroke:#000000"
         d="M 1387,-42 C 1393,-42 1399,-48 1399,-54"
         id="path322" />
      <polyline
         style="fill:none;stroke:#000000"
         points="1399,-54 1399,-145 "
         id="polyline324" />
      <path
         style="fill:none;stroke:#000000"
         d="M 1399,-145 C 1399,-151 1393,-157 1387,-157"
         id="path326" />
      <polyline
         style="fill:none;stroke:#000000"
         points="1387,-157 1306,-157 "
         id="polyline328" />
      <path
         style="fill:none;stroke:#000000"
         d="M 1306,-157 C 1300,-157 1294,-151 1294,-145"
         id="path330" />
      <polyline
         style="fill:none;stroke:#000000"
         points="1294,-145 1294,-54 "
         id="polyline332" />
      <path
         style="fill:none;stroke:#000000"
         d="M 1294,-54 C 1294,-48 1300,-42 1306,-42"
         id="path334" />
      <text
         x="1346"
         y="-138"
         style="font-size:14.17500019px;text-anchor:middle;font-family:Nimbus Roman No9 L"
         id="text336">UsersController</text>
      <polyline
         style="fill:none;stroke:#000000"
         points="1294,-132 1399,-132 "
         id="polyline338" />
      <text
         x="1301"
         y="-114"
         style="font-size:14.17500019px;text-anchor:start;font-family:Nimbus Roman No9 L"
         id="text340">create</text>
      <text
         x="1301"
         y="-97"
         style="font-size:14.17500019px;text-anchor:start;font-family:Nimbus Roman No9 L"
         id="text342">new</text>
      <polyline
         style="fill:none;stroke:#000000"
         points="1294,-90 1399,-90 "
         id="polyline344" />
      <polyline
         style="fill:none;stroke:#000000"
         points="1294,-66 1399,-66 "
         id="polyline346" />
    </g>
<!-- QuestionResponsesController -->    <g
       id="node10"
       class="node"
       transform="translate(-1056.9776,114.09607)">
      <title
         id="title349">QuestionResponsesController</title>
      <polyline
         style="fill:none;stroke:#000000"
         points="1428,-51 1587,-51 "
         id="polyline351" />
      <path
         style="fill:none;stroke:#000000"
         d="M 1587,-51 C 1593,-51 1599,-57 1599,-63"
         id="path353" />
      <polyline
         style="fill:none;stroke:#000000"
         points="1599,-63 1599,-137 "
         id="polyline355" />
      <path
         style="fill:none;stroke:#000000"
         d="M 1599,-137 C 1599,-143 1593,-149 1587,-149"
         id="path357" />
      <polyline
         style="fill:none;stroke:#000000"
         points="1587,-149 1428,-149 "
         id="polyline359" />
      <path
         style="fill:none;stroke:#000000"
         d="M 1428,-149 C 1422,-149 1416,-143 1416,-137"
         id="path361" />
      <polyline
         style="fill:none;stroke:#000000"
         points="1416,-137 1416,-63 "
         id="polyline363" />
      <path
         style="fill:none;stroke:#000000"
         d="M 1416,-63 C 1416,-57 1422,-51 1428,-51"
         id="path365" />
      <text
         x="1507"
         y="-130"
         style="font-size:14.17500019px;text-anchor:middle;font-family:Nimbus Roman No9 L"
         id="text367">QuestionResponsesController</text>
      <polyline
         style="fill:none;stroke:#000000"
         points="1416,-124 1599,-124 "
         id="polyline369" />
      <text
         x="1423"
         y="-105"
         style="font-size:14.17500019px;text-anchor:start;font-family:Nimbus Roman No9 L"
         id="text371">create</text>
      <polyline
         style="fill:none;stroke:#000000"
         points="1416,-99 1599,-99 "
         id="polyline373" />
      <polyline
         style="fill:none;stroke:#000000"
         points="1416,-75 1599,-75 "
         id="polyline375" />
    </g>
<!-- SessionsController -->    <g
       id="node11"
       class="node"
       transform="translate(-1056.9776,114.09607)">
      <title
         id="title378">SessionsController</title>
      <polyline
         style="fill:none;stroke:#000000"
         points="1628,-34 1726,-34 "
         id="polyline380" />
      <path
         style="fill:none;stroke:#000000"
         d="M 1726,-34 C 1732,-34 1738,-40 1738,-46"
         id="path382" />
      <polyline
         style="fill:none;stroke:#000000"
         points="1738,-46 1738,-153 "
         id="polyline384" />
      <path
         style="fill:none;stroke:#000000"
         d="M 1738,-153 C 1738,-159 1732,-165 1726,-165"
         id="path386" />
      <polyline
         style="fill:none;stroke:#000000"
         points="1726,-165 1628,-165 "
         id="polyline388" />
      <path
         style="fill:none;stroke:#000000"
         d="M 1628,-165 C 1622,-165 1616,-159 1616,-153"
         id="path390" />
      <polyline
         style="fill:none;stroke:#000000"
         points="1616,-153 1616,-46 "
         id="polyline392" />
      <path
         style="fill:none;stroke:#000000"
         d="M 1616,-46 C 1616,-40 1622,-34 1628,-34"
         id="path394" />
      <text
         x="1677"
         y="-146"
         style="font-size:14.17500019px;text-anchor:middle;font-family:Nimbus Roman No9 L"
         id="text396">SessionsController</text>
      <polyline
         style="fill:none;stroke:#000000"
         points="1616,-140 1738,-140 "
         id="polyline398" />
      <text
         x="1624"
         y="-122"
         style="font-size:14.17500019px;text-anchor:start;font-family:Nimbus Roman No9 L"
         id="text400">create</text>
      <text
         x="1624"
         y="-105"
         style="font-size:14.17500019px;text-anchor:start;font-family:Nimbus Roman No9 L"
         id="text402">destroy</text>
      <text
         x="1624"
         y="-88"
         style="font-size:14.17500019px;text-anchor:start;font-family:Nimbus Roman No9 L"
         id="text404">new</text>
      <polyline
         style="fill:none;stroke:#000000"
         points="1616,-82 1738,-82 "
         id="polyline406" />
      <polyline
         style="fill:none;stroke:#000000"
         points="1616,-58 1738,-58 "
         id="polyline408" />
    </g>
<!-- ActivationsController -->    <g
       id="node12"
       class="node"
       transform="translate(-1056.9776,114.09607)">
      <title
         id="title411">ActivationsController</title>
      <polyline
         style="fill:none;stroke:#000000"
         points="1768,-51 1882,-51 "
         id="polyline413" />
      <path
         style="fill:none;stroke:#000000"
         d="M 1882,-51 C 1888,-51 1894,-57 1894,-63"
         id="path415" />
      <polyline
         style="fill:none;stroke:#000000"
         points="1894,-63 1894,-137 "
         id="polyline417" />
      <path
         style="fill:none;stroke:#000000"
         d="M 1894,-137 C 1894,-143 1888,-149 1882,-149"
         id="path419" />
      <polyline
         style="fill:none;stroke:#000000"
         points="1882,-149 1768,-149 "
         id="polyline421" />
      <path
         style="fill:none;stroke:#000000"
         d="M 1768,-149 C 1762,-149 1756,-143 1756,-137"
         id="path423" />
      <polyline
         style="fill:none;stroke:#000000"
         points="1756,-137 1756,-63 "
         id="polyline425" />
      <path
         style="fill:none;stroke:#000000"
         d="M 1756,-63 C 1756,-57 1762,-51 1768,-51"
         id="path427" />
      <text
         x="1825"
         y="-130"
         style="font-size:14.17500019px;text-anchor:middle;font-family:Nimbus Roman No9 L"
         id="text429">ActivationsController</text>
      <polyline
         style="fill:none;stroke:#000000"
         points="1756,-124 1894,-124 "
         id="polyline431" />
      <text
         x="1764"
         y="-105"
         style="font-size:14.17500019px;text-anchor:start;font-family:Nimbus Roman No9 L"
         id="text433">new</text>
      <polyline
         style="fill:none;stroke:#000000"
         points="1756,-99 1894,-99 "
         id="polyline435" />
      <polyline
         style="fill:none;stroke:#000000"
         points="1756,-75 1894,-75 "
         id="polyline437" />
    </g>
<!-- ApplicationController -->    <g
       id="node13"
       class="node"
       transform="translate(-1056.9776,114.09607)">
      <title
         id="title440">ApplicationController</title>
      <polyline
         style="fill:none;stroke:#000000"
         points="1924,-33 2040,-33 "
         id="polyline442" />
      <path
         style="fill:none;stroke:#000000"
         d="M 2040,-33 C 2046,-33 2052,-39 2052,-45"
         id="path444" />
      <polyline
         style="fill:none;stroke:#000000"
         points="2052,-45 2052,-154 "
         id="polyline446" />
      <path
         style="fill:none;stroke:#000000"
         d="M 2052,-154 C 2052,-160 2046,-166 2040,-166"
         id="path448" />
      <polyline
         style="fill:none;stroke:#000000"
         points="2040,-166 1924,-166 "
         id="polyline450" />
      <path
         style="fill:none;stroke:#000000"
         d="M 1924,-166 C 1918,-166 1912,-160 1912,-154"
         id="path452" />
      <polyline
         style="fill:none;stroke:#000000"
         points="1912,-154 1912,-45 "
         id="polyline454" />
      <path
         style="fill:none;stroke:#000000"
         d="M 1912,-45 C 1912,-39 1918,-33 1924,-33"
         id="path456" />
      <text
         x="1982"
         y="-147"
         style="font-size:14.17500019px;text-anchor:middle;font-family:Nimbus Roman No9 L"
         id="text458">ApplicationController</text>
      <polyline
         style="fill:none;stroke:#000000"
         points="1912,-141 2052,-141 "
         id="polyline460" />
      <text
         x="1920"
         y="-122"
         style="font-size:14.17500019px;text-anchor:start;font-family:Nimbus Roman No9 L"
         id="text462">instructor_required</text>
      <polyline
         style="fill:none;stroke:#000000"
         points="1912,-116 2052,-116 "
         id="polyline464" />
      <text
         x="1920"
         y="-98"
         style="font-size:14.17500019px;text-anchor:start;font-family:Nimbus Roman No9 L"
         id="text466">get_course</text>
      <text
         x="1920"
         y="-81"
         style="font-size:14.17500019px;text-anchor:start;font-family:Nimbus Roman No9 L"
         id="text468">get_question</text>
      <text
         x="1920"
         y="-64"
         style="font-size:14.17500019px;text-anchor:start;font-family:Nimbus Roman No9 L"
         id="text470">get_quiz</text>
      <polyline
         style="fill:none;stroke:#000000"
         points="1912,-58 2052,-58 "
         id="polyline472" />
      <text
         x="1920"
         y="-39"
         style="font-size:14.17500019px;text-anchor:start;font-family:Nimbus Roman No9 L"
         id="text474">audit_request</text>
    </g>
  </g>
</svg>
