<?xml version="1.0" encoding="UTF-8" standalone="no"?>
<!DOCTYPE svg PUBLIC "-//W3C//DTD SVG 1.0//EN"
 "http://www.w3.org/TR/2001/REC-SVG-20010904/DTD/svg10.dtd" [
 <!ATTLIST svg xmlns:xlink CDATA #FIXED "http://www.w3.org/1999/xlink">
]>
<!-- Generated by Graphviz version 2.12 (Sat Apr 21 13:02:05 UTC 2007)
     For user: (jasond)  -->
<!-- Title: models_diagram Pages: 1 -->
<svg width="12.17in" height="10.19in"
 xmlns="http://www.w3.org/2000/svg" xmlns:xlink="http://www.w3.org/1999/xlink">
<g id="graph0" class="graph" transform="scale(1.33333 1.33333) rotate(0) translate(4 730)">
<title>models_diagram</title>
<polygon style="fill:white;stroke:white;" points="-4,4 -4,-730 872,-730 872,4 -4,4"/>
<!-- Audit -->
<g id="node1" class="node"><title>Audit</title>
<polyline style="fill:none;stroke:black;" points="451,-17 556,-17 "/>
<path style="fill:none;stroke:black;" d="M556,-17C562,-17 568,-23 568,-29"/>
<polyline style="fill:none;stroke:black;" points="568,-29 568,-105 "/>
<path style="fill:none;stroke:black;" d="M568,-105C568,-111 562,-117 556,-117"/>
<polyline style="fill:none;stroke:black;" points="556,-117 451,-117 "/>
<path style="fill:none;stroke:black;" d="M451,-117C445,-117 439,-111 439,-105"/>
<polyline style="fill:none;stroke:black;" points="439,-105 439,-29 "/>
<path style="fill:none;stroke:black;" d="M439,-29C439,-23 445,-17 451,-17"/>
<text text-anchor="middle" x="503" y="-98" style="font-family:Nimbus Roman No9 L;font-weight:regular;font-size:11.34pt;">Audit</text>
<polyline style="fill:none;stroke:black;" points="439,-92 568,-92 "/>
<text text-anchor="start" x="446" y="-74" style="font-family:Nimbus Roman No9 L;font-weight:regular;font-size:11.34pt;">params :text</text>
<text text-anchor="start" x="446" y="-57" style="font-family:Nimbus Roman No9 L;font-weight:regular;font-size:11.34pt;">url :string</text>
<text text-anchor="start" x="446" y="-40" style="font-family:Nimbus Roman No9 L;font-weight:regular;font-size:11.34pt;">ip :string</text>
<text text-anchor="start" x="446" y="-23" style="font-family:Nimbus Roman No9 L;font-weight:regular;font-size:11.34pt;">created_at :datetime</text>
</g>
<!-- Grade -->
<g id="node2" class="node"><title>Grade</title>
<polyline style="fill:none;stroke:black;" points="597,-33 655,-33 "/>
<path style="fill:none;stroke:black;" d="M655,-33C661,-33 667,-39 667,-45"/>
<polyline style="fill:none;stroke:black;" points="667,-45 667,-88 "/>
<path style="fill:none;stroke:black;" d="M667,-88C667,-94 661,-100 655,-100"/>
<polyline style="fill:none;stroke:black;" points="655,-100 597,-100 "/>
<path style="fill:none;stroke:black;" d="M597,-100C591,-100 585,-94 585,-88"/>
<polyline style="fill:none;stroke:black;" points="585,-88 585,-45 "/>
<path style="fill:none;stroke:black;" d="M585,-45C585,-39 591,-33 597,-33"/>
<text text-anchor="middle" x="626" y="-81" style="font-family:Nimbus Roman No9 L;font-weight:regular;font-size:11.34pt;">Grade</text>
<polyline style="fill:none;stroke:black;" points="585,-75 667,-75 "/>
<text text-anchor="start" x="593" y="-57" style="font-family:Nimbus Roman No9 L;font-weight:regular;font-size:11.34pt;">nane :string</text>
<text text-anchor="start" x="593" y="-40" style="font-family:Nimbus Roman No9 L;font-weight:regular;font-size:11.34pt;">value :float</text>
</g>
<!-- Quiz -->
<g id="node3" class="node"><title>Quiz</title>
<polyline style="fill:none;stroke:black;" points="75,-279 190,-279 "/>
<path style="fill:none;stroke:black;" d="M190,-279C196,-279 202,-285 202,-291"/>
<polyline style="fill:none;stroke:black;" points="202,-291 202,-367 "/>
<path style="fill:none;stroke:black;" d="M202,-367C202,-373 196,-379 190,-379"/>
<polyline style="fill:none;stroke:black;" points="190,-379 75,-379 "/>
<path style="fill:none;stroke:black;" d="M75,-379C69,-379 63,-373 63,-367"/>
<polyline style="fill:none;stroke:black;" points="63,-367 63,-291 "/>
<path style="fill:none;stroke:black;" d="M63,-291C63,-285 69,-279 75,-279"/>
<text text-anchor="middle" x="132" y="-360" style="font-family:Nimbus Roman No9 L;font-weight:regular;font-size:11.34pt;">Quiz</text>
<polyline style="fill:none;stroke:black;" points="63,-354 202,-354 "/>
<text text-anchor="start" x="70" y="-336" style="font-family:Nimbus Roman No9 L;font-weight:regular;font-size:11.34pt;">name :string</text>
<text text-anchor="start" x="70" y="-319" style="font-family:Nimbus Roman No9 L;font-weight:regular;font-size:11.34pt;">due_at :datetime</text>
<text text-anchor="start" x="70" y="-302" style="font-family:Nimbus Roman No9 L;font-weight:regular;font-size:11.34pt;">viewable_at :datetime</text>
<text text-anchor="start" x="70" y="-285" style="font-family:Nimbus Roman No9 L;font-weight:regular;font-size:11.34pt;">created_at :datetime</text>
</g>
<!-- QuestionResponse -->
<g id="node4" class="node"><title>QuestionResponse</title>
<polyline style="fill:none;stroke:black;" points="159,-33 264,-33 "/>
<path style="fill:none;stroke:black;" d="M264,-33C270,-33 276,-39 276,-45"/>
<polyline style="fill:none;stroke:black;" points="276,-45 276,-88 "/>
<path style="fill:none;stroke:black;" d="M276,-88C276,-94 270,-100 264,-100"/>
<polyline style="fill:none;stroke:black;" points="264,-100 159,-100 "/>
<path style="fill:none;stroke:black;" d="M159,-100C153,-100 147,-94 147,-88"/>
<polyline style="fill:none;stroke:black;" points="147,-88 147,-45 "/>
<path style="fill:none;stroke:black;" d="M147,-45C147,-39 153,-33 159,-33"/>
<text text-anchor="middle" x="211" y="-81" style="font-family:Nimbus Roman No9 L;font-weight:regular;font-size:11.34pt;">QuestionResponse</text>
<polyline style="fill:none;stroke:black;" points="147,-75 276,-75 "/>
<text text-anchor="start" x="154" y="-57" style="font-family:Nimbus Roman No9 L;font-weight:regular;font-size:11.34pt;">correct :boolean</text>
<text text-anchor="start" x="154" y="-40" style="font-family:Nimbus Roman No9 L;font-weight:regular;font-size:11.34pt;">created_at :datetime</text>
</g>
<!-- Quiz&#45;&gt;QuestionResponse -->
<g id="edge4" class="edge"><title>Quiz&#45;&gt;QuestionResponse</title>
<path style="fill:none;stroke:black;" d="M174,-279C196,-249 221,-209 233,-168 239,-149 236,-128 230,-110"/>
<polygon style="fill:black;stroke:black;" points="233.226,-108.573 227,-100 226.521,-110.584 233.226,-108.573"/>
<a xlink:title="n">
</a>
<text text-anchor="middle" x="176" y="-263" style="font-family:Nimbus Roman No9 L;font-weight:regular;font-size:11.34pt;">n</text>
</g>
<!-- Quiz&#45;&gt;QuestionResponse -->
<g id="edge6" class="edge"><title>Quiz&#45;&gt;QuestionResponse</title>
<path style="fill:none;stroke:black;" d="M121,-279C116,-242 113,-192 129,-152 136,-135 147,-120 160,-107"/>
<polygon style="fill:black;stroke:black;" points="162.404,-109.546 167,-100 157.454,-104.596 162.404,-109.546"/>
<a xlink:title="n">
</a>
<a xlink:title="correct_responses">
</a>
<text text-anchor="middle" x="180" y="-154" style="font-family:Nimbus Roman No9 L;font-weight:regular;font-size:11.34pt;">correct_responses</text>
<text text-anchor="middle" x="116" y="-265" style="font-family:Nimbus Roman No9 L;font-weight:regular;font-size:11.34pt;">n</text>
</g>
<!-- QuizQuestion -->
<g id="node11" class="node"><title>QuizQuestion</title>
<polyline style="fill:none;stroke:black;" points="12,-42 103,-42 "/>
<path style="fill:none;stroke:black;" d="M103,-42C109,-42 115,-48 115,-54"/>
<polyline style="fill:none;stroke:black;" points="115,-54 115,-80 "/>
<path style="fill:none;stroke:black;" d="M115,-80C115,-86 109,-92 103,-92"/>
<polyline style="fill:none;stroke:black;" points="103,-92 12,-92 "/>
<path style="fill:none;stroke:black;" d="M12,-92C6,-92 0,-86 0,-80"/>
<polyline style="fill:none;stroke:black;" points="0,-80 0,-54 "/>
<path style="fill:none;stroke:black;" d="M0,-54C0,-48 6,-42 12,-42"/>
<text text-anchor="middle" x="57" y="-73" style="font-family:Nimbus Roman No9 L;font-weight:regular;font-size:11.34pt;">QuizQuestion</text>
<polyline style="fill:none;stroke:black;" points="0,-67 115,-67 "/>
<text text-anchor="start" x="7" y="-48" style="font-family:Nimbus Roman No9 L;font-weight:regular;font-size:11.34pt;">forgiven :boolean</text>
</g>
<!-- Quiz&#45;&gt;QuizQuestion -->
<g id="edge2" class="edge"><title>Quiz&#45;&gt;QuizQuestion</title>
<path style="fill:none;stroke:black;" d="M103,-279C86,-248 67,-207 58,-168 54,-147 53,-122 54,-102"/>
<polygon style="fill:black;stroke:black;" points="57.4875,-102.299 55,-92 50.5222,-101.602 57.4875,-102.299"/>
<a xlink:title="n">
</a>
<a xlink:title="questions">
</a>
<text text-anchor="middle" x="85" y="-154" style="font-family:Nimbus Roman No9 L;font-weight:regular;font-size:11.34pt;">questions</text>
<text text-anchor="middle" x="95" y="-267" style="font-family:Nimbus Roman No9 L;font-weight:regular;font-size:11.34pt;">n</text>
</g>
<!-- Course -->
<g id="node5" class="node"><title>Course</title>
<polyline style="fill:none;stroke:black;" points="261,-524 432,-524 "/>
<path style="fill:none;stroke:black;" d="M432,-524C438,-524 444,-530 444,-536"/>
<polyline style="fill:none;stroke:black;" points="444,-536 444,-713 "/>
<path style="fill:none;stroke:black;" d="M444,-713C444,-719 438,-725 432,-725"/>
<polyline style="fill:none;stroke:black;" points="432,-725 261,-725 "/>
<path style="fill:none;stroke:black;" d="M261,-725C255,-725 249,-719 249,-713"/>
<polyline style="fill:none;stroke:black;" points="249,-713 249,-536 "/>
<path style="fill:none;stroke:black;" d="M249,-536C249,-530 255,-524 261,-524"/>
<text text-anchor="middle" x="346" y="-706" style="font-family:Nimbus Roman No9 L;font-weight:regular;font-size:11.34pt;">Course</text>
<polyline style="fill:none;stroke:black;" points="249,-700 444,-700 "/>
<text text-anchor="start" x="256" y="-682" style="font-family:Nimbus Roman No9 L;font-weight:regular;font-size:11.34pt;">title :string</text>
<text text-anchor="start" x="256" y="-665" style="font-family:Nimbus Roman No9 L;font-weight:regular;font-size:11.34pt;">department :string</text>
<text text-anchor="start" x="256" y="-648" style="font-family:Nimbus Roman No9 L;font-weight:regular;font-size:11.34pt;">number :string</text>
<text text-anchor="start" x="256" y="-631" style="font-family:Nimbus Roman No9 L;font-weight:regular;font-size:11.34pt;">semester :integer</text>
<text text-anchor="start" x="256" y="-614" style="font-family:Nimbus Roman No9 L;font-weight:regular;font-size:11.34pt;">year :integer</text>
<text text-anchor="start" x="256" y="-597" style="font-family:Nimbus Roman No9 L;font-weight:regular;font-size:11.34pt;">section :integer</text>
<text text-anchor="start" x="256" y="-580" style="font-family:Nimbus Roman No9 L;font-weight:regular;font-size:11.34pt;">registration_code :string</text>
<text text-anchor="start" x="256" y="-563" style="font-family:Nimbus Roman No9 L;font-weight:regular;font-size:11.34pt;">registration_closed_at :datetime</text>
<text text-anchor="start" x="256" y="-546" style="font-family:Nimbus Roman No9 L;font-weight:regular;font-size:11.34pt;">created_at :datetime</text>
<text text-anchor="start" x="256" y="-529" style="font-family:Nimbus Roman No9 L;font-weight:regular;font-size:11.34pt;">updated_at :datetime</text>
</g>
<!-- Course&#45;&gt;Quiz -->
<g id="edge10" class="edge"><title>Course&#45;&gt;Quiz</title>
<path style="fill:none;stroke:black;" d="M249,-601C199,-584 143,-554 113,-506 92,-471 98,-425 108,-389"/>
<polygon style="fill:black;stroke:black;" points="111.479,-389.584 111,-379 104.774,-387.573 111.479,-389.584"/>
<a xlink:title="n">
</a>
<text text-anchor="middle" x="239" y="-596" style="font-family:Nimbus Roman No9 L;font-weight:regular;font-size:11.34pt;">n</text>
</g>
<!-- Course&#45;&gt;Quiz -->
<g id="edge16" class="edge"><title>Course&#45;&gt;Quiz</title>
<path style="fill:none;stroke:black;" d="M249,-596C206,-577 159,-549 133,-506 112,-471 113,-426 118,-389"/>
<polygon style="fill:black;stroke:black;" points="121.488,-389.299 119,-379 114.522,-388.602 121.488,-389.299"/>
<a xlink:title="n">
</a>
<a xlink:title="open_quizzes">
</a>
<text text-anchor="middle" x="172" y="-492" style="font-family:Nimbus Roman No9 L;font-weight:regular;font-size:11.34pt;">open_quizzes</text>
<text text-anchor="middle" x="239" y="-590" style="font-family:Nimbus Roman No9 L;font-weight:regular;font-size:11.34pt;">n</text>
</g>
<!-- Course&#45;&gt;Quiz -->
<g id="edge18" class="edge"><title>Course&#45;&gt;Quiz</title>
<path style="fill:none;stroke:black;" d="M249,-527C243,-520 237,-513 232,-506 205,-469 180,-424 162,-388"/>
<polygon style="fill:black;stroke:black;" points="164.916,-386.042 157,-379 158.797,-389.441 164.916,-386.042"/>
<a xlink:title="n">
</a>
<a xlink:title="closed_quizzes">
</a>
<text text-anchor="middle" x="275" y="-492" style="font-family:Nimbus Roman No9 L;font-weight:regular;font-size:11.34pt;">closed_quizzes</text>
<text text-anchor="middle" x="240" y="-517" style="font-family:Nimbus Roman No9 L;font-weight:regular;font-size:11.34pt;">n</text>
</g>
<!-- Announcement -->
<g id="node7" class="node"><title>Announcement</title>
<polyline style="fill:none;stroke:black;" points="305,-25 410,-25 "/>
<path style="fill:none;stroke:black;" d="M410,-25C416,-25 422,-31 422,-37"/>
<polyline style="fill:none;stroke:black;" points="422,-37 422,-96 "/>
<path style="fill:none;stroke:black;" d="M422,-96C422,-102 416,-108 410,-108"/>
<polyline style="fill:none;stroke:black;" points="410,-108 305,-108 "/>
<path style="fill:none;stroke:black;" d="M305,-108C299,-108 293,-102 293,-96"/>
<polyline style="fill:none;stroke:black;" points="293,-96 293,-37 "/>
<path style="fill:none;stroke:black;" d="M293,-37C293,-31 299,-25 305,-25"/>
<text text-anchor="middle" x="357" y="-89" style="font-family:Nimbus Roman No9 L;font-weight:regular;font-size:11.34pt;">Announcement</text>
<polyline style="fill:none;stroke:black;" points="293,-83 422,-83 "/>
<text text-anchor="start" x="300" y="-65" style="font-family:Nimbus Roman No9 L;font-weight:regular;font-size:11.34pt;">title :string</text>
<text text-anchor="start" x="300" y="-48" style="font-family:Nimbus Roman No9 L;font-weight:regular;font-size:11.34pt;">body :text</text>
<text text-anchor="start" x="300" y="-31" style="font-family:Nimbus Roman No9 L;font-weight:regular;font-size:11.34pt;">created_at :datetime</text>
</g>
<!-- Course&#45;&gt;Announcement -->
<g id="edge8" class="edge"><title>Course&#45;&gt;Announcement</title>
<path style="fill:none;stroke:black;" d="M346,-524C345,-431 345,-290 344,-168 344,-160 344,-159 344,-152 345,-141 346,-129 348,-118"/>
<polygon style="fill:black;stroke:black;" points="351.488,-118.299 349,-108 344.522,-117.602 351.488,-118.299"/>
<a xlink:title="n">
</a>
<text text-anchor="middle" x="342" y="-509" style="font-family:Nimbus Roman No9 L;font-weight:regular;font-size:11.34pt;">n</text>
</g>
<!-- User -->
<g id="node8" class="node"><title>User</title>
<polyline style="fill:none;stroke:black;" points="375,-186 582,-186 "/>
<path style="fill:none;stroke:black;" d="M582,-186C588,-186 594,-192 594,-198"/>
<polyline style="fill:none;stroke:black;" points="594,-198 594,-459 "/>
<path style="fill:none;stroke:black;" d="M594,-459C594,-465 588,-471 582,-471"/>
<polyline style="fill:none;stroke:black;" points="582,-471 375,-471 "/>
<path style="fill:none;stroke:black;" d="M375,-471C369,-471 363,-465 363,-459"/>
<polyline style="fill:none;stroke:black;" points="363,-459 363,-198 "/>
<path style="fill:none;stroke:black;" d="M363,-198C363,-192 369,-186 375,-186"/>
<text text-anchor="middle" x="478" y="-452" style="font-family:Nimbus Roman No9 L;font-weight:regular;font-size:11.34pt;">User</text>
<polyline style="fill:none;stroke:black;" points="363,-446 594,-446 "/>
<text text-anchor="start" x="371" y="-428" style="font-family:Nimbus Roman No9 L;font-weight:regular;font-size:11.34pt;">login :string</text>
<text text-anchor="start" x="371" y="-411" style="font-family:Nimbus Roman No9 L;font-weight:regular;font-size:11.34pt;">email :string</text>
<text text-anchor="start" x="371" y="-394" style="font-family:Nimbus Roman No9 L;font-weight:regular;font-size:11.34pt;">first_name :string</text>
<text text-anchor="start" x="371" y="-377" style="font-family:Nimbus Roman No9 L;font-weight:regular;font-size:11.34pt;">last_name :string</text>
<text text-anchor="start" x="371" y="-360" style="font-family:Nimbus Roman No9 L;font-weight:regular;font-size:11.34pt;">blackboard_username :string</text>
<text text-anchor="start" x="371" y="-343" style="font-family:Nimbus Roman No9 L;font-weight:regular;font-size:11.34pt;">registration_code :string</text>
<text text-anchor="start" x="371" y="-326" style="font-family:Nimbus Roman No9 L;font-weight:regular;font-size:11.34pt;">instructor :boolean</text>
<text text-anchor="start" x="371" y="-309" style="font-family:Nimbus Roman No9 L;font-weight:regular;font-size:11.34pt;">crypted_password :string</text>
<text text-anchor="start" x="371" y="-292" style="font-family:Nimbus Roman No9 L;font-weight:regular;font-size:11.34pt;">salt :string</text>
<text text-anchor="start" x="371" y="-275" style="font-family:Nimbus Roman No9 L;font-weight:regular;font-size:11.34pt;">created_at :datetime</text>
<text text-anchor="start" x="371" y="-258" style="font-family:Nimbus Roman No9 L;font-weight:regular;font-size:11.34pt;">updated_at :datetime</text>
<text text-anchor="start" x="371" y="-241" style="font-family:Nimbus Roman No9 L;font-weight:regular;font-size:11.34pt;">remember_token :string</text>
<text text-anchor="start" x="371" y="-224" style="font-family:Nimbus Roman No9 L;font-weight:regular;font-size:11.34pt;">remember_token_expires_at :datetime</text>
<text text-anchor="start" x="371" y="-207" style="font-family:Nimbus Roman No9 L;font-weight:regular;font-size:11.34pt;">activation_code :string</text>
<text text-anchor="start" x="371" y="-190" style="font-family:Nimbus Roman No9 L;font-weight:regular;font-size:11.34pt;">activated_at :datetime</text>
</g>
<!-- Course&#45;&gt;User -->
<g id="edge12" class="edge"><title>Course&#45;&gt;User</title>
<path style="fill:none;stroke:black;" d="M354,-524C357,-512 360,-501 364,-490 366,-487 367,-484 368,-480"/>
<polygon style="fill:black;stroke:black;" points="371.137,-481.56 372,-471 364.74,-478.717 371.137,-481.56"/>
<a xlink:title="n">
</a>
<a xlink:title="students">
</a>
<text text-anchor="middle" x="387" y="-492" style="font-family:Nimbus Roman No9 L;font-weight:regular;font-size:11.34pt;">students</text>
<text text-anchor="middle" x="352" y="-508" style="font-family:Nimbus Roman No9 L;font-weight:regular;font-size:11.34pt;">n</text>
</g>
<!-- Course&#45;&gt;User -->
<g id="edge14" class="edge"><title>Course&#45;&gt;User</title>
<path style="fill:none;stroke:black;" d="M401,-524C404,-518 406,-512 409,-506 413,-498 416,-489 421,-480"/>
<polygon style="fill:black;stroke:black;" points="424.137,-481.56 425,-471 417.74,-478.717 424.137,-481.56"/>
<a xlink:title="n">
</a>
<a xlink:title="instructors">
</a>
<text text-anchor="middle" x="448" y="-492" style="font-family:Nimbus Roman No9 L;font-weight:regular;font-size:11.34pt;">instructors</text>
<text text-anchor="middle" x="401" y="-508" style="font-family:Nimbus Roman No9 L;font-weight:regular;font-size:11.34pt;">n</text>
</g>
<!-- Course&#45;&gt;User -->
<g id="edge20" class="edge"><title>Course&#45;&gt;User</title>
<path style="fill:none;stroke:black;" d="M444,-557C459,-542 473,-525 481,-506 485,-498 487,-489 489,-481"/>
<polygon style="fill:black;stroke:black;" points="492.479,-481.584 492,-471 485.774,-479.573 492.479,-481.584"/>
<a xlink:title="n">
</a>
<text text-anchor="middle" x="447" y="-542" style="font-family:Nimbus Roman No9 L;font-weight:regular;font-size:11.34pt;">n</text>
</g>
<!-- Document -->
<g id="node9" class="node"><title>Document</title>
<polyline style="fill:none;stroke:black;" points="697,-0 812,-0 "/>
<path style="fill:none;stroke:black;" d="M812,-0C818,-0 824,-6 824,-12"/>
<polyline style="fill:none;stroke:black;" points="824,-12 824,-122 "/>
<path style="fill:none;stroke:black;" d="M824,-122C824,-128 818,-134 812,-134"/>
<polyline style="fill:none;stroke:black;" points="812,-134 697,-134 "/>
<path style="fill:none;stroke:black;" d="M697,-134C691,-134 685,-128 685,-122"/>
<polyline style="fill:none;stroke:black;" points="685,-122 685,-12 "/>
<path style="fill:none;stroke:black;" d="M685,-12C685,-6 691,-0 697,-0"/>
<text text-anchor="middle" x="754" y="-115" style="font-family:Nimbus Roman No9 L;font-weight:regular;font-size:11.34pt;">Document</text>
<polyline style="fill:none;stroke:black;" points="685,-109 824,-109 "/>
<text text-anchor="start" x="692" y="-90" style="font-family:Nimbus Roman No9 L;font-weight:regular;font-size:11.34pt;">label :string</text>
<text text-anchor="start" x="692" y="-73" style="font-family:Nimbus Roman No9 L;font-weight:regular;font-size:11.34pt;">viewable_at :datetime</text>
<text text-anchor="start" x="692" y="-56" style="font-family:Nimbus Roman No9 L;font-weight:regular;font-size:11.34pt;">content_type :string</text>
<text text-anchor="start" x="692" y="-39" style="font-family:Nimbus Roman No9 L;font-weight:regular;font-size:11.34pt;">filename :string</text>
<text text-anchor="start" x="692" y="-22" style="font-family:Nimbus Roman No9 L;font-weight:regular;font-size:11.34pt;">size :integer</text>
<text text-anchor="start" x="692" y="-5" style="font-family:Nimbus Roman No9 L;font-weight:regular;font-size:11.34pt;">created_at :datetime</text>
</g>
<!-- Course&#45;&gt;Document -->
<g id="edge22" class="edge"><title>Course&#45;&gt;Document</title>
<path style="fill:none;stroke:black;" d="M444,-586C497,-560 560,-522 602,-472 683,-375 723,-231 741,-144"/>
<polygon style="fill:black;stroke:black;" points="744.471,-144.492 743,-134 737.607,-143.119 744.471,-144.492"/>
<a xlink:title="n">
</a>
<text text-anchor="middle" x="450" y="-572" style="font-family:Nimbus Roman No9 L;font-weight:regular;font-size:11.34pt;">n</text>
</g>
<!-- QuestionChoice -->
<g id="node6" class="node"><title>QuestionChoice</title>
<polyline style="fill:none;stroke:black;" points="774,-304 856,-304 "/>
<path style="fill:none;stroke:black;" d="M856,-304C862,-304 868,-310 868,-316"/>
<polyline style="fill:none;stroke:black;" points="868,-316 868,-342 "/>
<path style="fill:none;stroke:black;" d="M868,-342C868,-348 862,-354 856,-354"/>
<polyline style="fill:none;stroke:black;" points="856,-354 774,-354 "/>
<path style="fill:none;stroke:black;" d="M774,-354C768,-354 762,-348 762,-342"/>
<polyline style="fill:none;stroke:black;" points="762,-342 762,-316 "/>
<path style="fill:none;stroke:black;" d="M762,-316C762,-310 768,-304 774,-304"/>
<text text-anchor="middle" x="815" y="-335" style="font-family:Nimbus Roman No9 L;font-weight:regular;font-size:11.34pt;">QuestionChoice</text>
<polyline style="fill:none;stroke:black;" points="762,-329 868,-329 "/>
<text text-anchor="start" x="770" y="-310" style="font-family:Nimbus Roman No9 L;font-weight:regular;font-size:11.34pt;">content :text</text>
</g>
<!-- User&#45;&gt;Audit -->
<g id="edge26" class="edge"><title>User&#45;&gt;Audit</title>
<path style="fill:none;stroke:black;" d="M492,-186C494,-165 496,-145 498,-127"/>
<polygon style="fill:black;stroke:black;" points="501.488,-127.299 499,-117 494.522,-126.602 501.488,-127.299"/>
<a xlink:title="n">
</a>
<text text-anchor="middle" x="489" y="-171" style="font-family:Nimbus Roman No9 L;font-weight:regular;font-size:11.34pt;">n</text>
</g>
<!-- User&#45;&gt;Grade -->
<g id="edge28" class="edge"><title>User&#45;&gt;Grade</title>
<path style="fill:none;stroke:black;" d="M559,-186C575,-158 590,-130 602,-109"/>
<polygon style="fill:black;stroke:black;" points="605.203,-110.441 607,-100 599.084,-107.042 605.203,-110.441"/>
<a xlink:title="n">
</a>
<text text-anchor="middle" x="560" y="-170" style="font-family:Nimbus Roman No9 L;font-weight:regular;font-size:11.34pt;">n</text>
</g>
<!-- User&#45;&gt;QuestionResponse -->
<g id="edge30" class="edge"><title>User&#45;&gt;QuestionResponse</title>
<path style="fill:none;stroke:black;" d="M363,-216C323,-177 282,-137 252,-107"/>
<polygon style="fill:black;stroke:black;" points="254.546,-104.596 245,-100 249.596,-109.546 254.546,-104.596"/>
<a xlink:title="n">
</a>
<text text-anchor="middle" x="354" y="-207" style="font-family:Nimbus Roman No9 L;font-weight:regular;font-size:11.34pt;">n</text>
</g>
<!-- User&#45;&gt;QuestionResponse -->
<g id="edge34" class="edge"><title>User&#45;&gt;QuestionResponse</title>
<path style="fill:none;stroke:black;" d="M364,-186C351,-173 338,-162 324,-152 309,-140 301,-144 284,-134 273,-126 261,-117 250,-107"/>
<polygon style="fill:black;stroke:black;" points="252.546,-104.596 243,-100 247.596,-109.546 252.546,-104.596"/>
<a xlink:title="n">
</a>
<a xlink:title="correct_responses">
</a>
<text text-anchor="middle" x="396" y="-154" style="font-family:Nimbus Roman No9 L;font-weight:regular;font-size:11.34pt;">correct_responses</text>
<text text-anchor="middle" x="355" y="-177" style="font-family:Nimbus Roman No9 L;font-weight:regular;font-size:11.34pt;">n</text>
</g>
<!-- User&#45;&gt;Announcement -->
<g id="edge24" class="edge"><title>User&#45;&gt;Announcement</title>
<path style="fill:none;stroke:black;" d="M480,-186C476,-174 471,-162 464,-152 455,-137 444,-143 430,-134 422,-128 414,-121 407,-115"/>
<polygon style="fill:black;stroke:black;" points="408.831,-111.951 399,-108 404.221,-117.219 408.831,-111.951"/>
<a xlink:title="n">
</a>
<text text-anchor="middle" x="473" y="-173" style="font-family:Nimbus Roman No9 L;font-weight:regular;font-size:11.34pt;">n</text>
</g>
<!-- User&#45;&gt;Document -->
<g id="edge32" class="edge"><title>User&#45;&gt;Document</title>
<path style="fill:none;stroke:black;" d="M594,-219C622,-193 651,-165 677,-140"/>
<polygon style="fill:black;stroke:black;" points="679.779,-142.219 685,-133 675.169,-136.951 679.779,-142.219"/>
<a xlink:title="n">
</a>
<text text-anchor="middle" x="598" y="-204" style="font-family:Nimbus Roman No9 L;font-weight:regular;font-size:11.34pt;">n</text>
</g>
<!-- Question -->
<g id="node10" class="node"><title>Question</title>
<polyline style="fill:none;stroke:black;" points="776,-583 855,-583 "/>
<path style="fill:none;stroke:black;" d="M855,-583C861,-583 867,-589 867,-595"/>
<polyline style="fill:none;stroke:black;" points="867,-595 867,-654 "/>
<path style="fill:none;stroke:black;" d="M867,-654C867,-660 861,-666 855,-666"/>
<polyline style="fill:none;stroke:black;" points="855,-666 776,-666 "/>
<path style="fill:none;stroke:black;" d="M776,-666C770,-666 764,-660 764,-654"/>
<polyline style="fill:none;stroke:black;" points="764,-654 764,-595 "/>
<path style="fill:none;stroke:black;" d="M764,-595C764,-589 770,-583 776,-583"/>
<text text-anchor="middle" x="815" y="-647" style="font-family:Nimbus Roman No9 L;font-weight:regular;font-size:11.34pt;">Question</text>
<polyline style="fill:none;stroke:black;" points="764,-641 867,-641 "/>
<text text-anchor="start" x="771" y="-623" style="font-family:Nimbus Roman No9 L;font-weight:regular;font-size:11.34pt;">content :text</text>
<text text-anchor="start" x="771" y="-606" style="font-family:Nimbus Roman No9 L;font-weight:regular;font-size:11.34pt;">answer :integer</text>
<text text-anchor="start" x="771" y="-589" style="font-family:Nimbus Roman No9 L;font-weight:regular;font-size:11.34pt;">chapter :integer</text>
</g>
<!-- Question&#45;&gt;QuestionChoice -->
<g id="edge36" class="edge"><title>Question&#45;&gt;QuestionChoice</title>
<path style="fill:none;stroke:black;" d="M815,-583C815,-524 815,-419 815,-364"/>
<polygon style="fill:black;stroke:black;" points="818.5,-364 815,-354 811.5,-364 818.5,-364"/>
<a xlink:title="n">
</a>
<a xlink:title="choices">
</a>
<text text-anchor="middle" x="835" y="-492" style="font-family:Nimbus Roman No9 L;font-weight:regular;font-size:11.34pt;">choices</text>
<text text-anchor="middle" x="811" y="-568" style="font-family:Nimbus Roman No9 L;font-weight:regular;font-size:11.34pt;">n</text>
</g>
</g>
</svg>
